<?xml version="1.0" encoding="utf-8"?>
<!-- Generator: Adobe Illustrator 27.5.0, SVG Export Plug-In . SVG Version: 6.00 Build 0)  -->
<svg version="1.1" baseProfile="tiny" id="Layer_1" xmlns="http://www.w3.org/2000/svg" xmlns:xlink="http://www.w3.org/1999/xlink"
	 x="0px" y="0px" viewBox="0 0 410.85 410.85" overflow="visible" xml:space="preserve">
<g>
	<path fill="#DAE6F7" d="M359.02,373.67c-5.73,0-11.46,0.17-17.18-0.06c-4.29-0.17-5.72,1.62-6.14,5.8
		c-1.44,14.1-7.16,19.14-21.45,19.15c-72.78,0.04-145.55,0.04-218.33,0.01c-15.07-0.01-20.36-4.58-21.92-19.29
		c-0.45-4.29-2.15-5.73-6.3-5.66c-10.02,0.17-20.04,0.12-30.06,0.03c-29.56-0.26-45.05-24.34-32.95-51.1
		c15.73-34.78,31.1-69.73,47.28-104.29c9.67-20.66,22.72-38.68,44.8-48.19c1.94-0.84,3.68-4.03,4.04-6.36
		c6.2-40.36,15.74-79.57,39.26-113.88c10.59-15.44,23.87-28.06,42.13-34.02c28.41-9.26,56.67-0.13,77.45,24.63
		c19.51,23.24,29.95,50.78,37.36,79.65c3.83,14.95,6.83,30.12,10.42,45.14c0.36,1.5,1.98,3.26,3.43,3.85
		c20.67,8.28,34.73,23.73,44,43.1c18.13,37.87,35.61,76.06,52.56,114.47c9.27,21-4.78,43.91-27.67,46.55
		c-6.82,0.79-13.81,0.12-20.73,0.12C359.02,373.43,359.02,373.55,359.02,373.67z M204.4,386.8c36.73,0,73.47-0.07,110.2,0.07
		c5.98,0.02,9.3-1.6,9.83-8.24c3.64-44.92,7.65-89.81,11.25-134.74c1.7-21.25-8.21-31.61-29.54-31.63
		c-46.51-0.04-93.02-0.01-139.54-0.01c-21.23,0-42.46,0.02-63.68,0.01c-20.47-0.01-30.14,10.26-29.01,30.84
		c0.1,1.9,0.24,3.81,0.41,5.71c3.66,42.76,7.35,85.53,10.98,128.29c0.76,8.96,1.37,9.68,10.33,9.69
		C131.89,386.81,168.15,386.8,204.4,386.8z M119.15,122.67c55.98-34.41,110.64-36.03,166.27-2.46c-0.1-1.42,0.01-2.61-0.3-3.68
		c-7.61-26.08-18-50.7-35.83-71.79c-23.7-28.04-61.33-29.99-87.59-4.33c-16.66,16.28-26.67,36.43-34.67,57.8
		C124.14,105.93,121.95,113.91,119.15,122.67z M114.03,199.44c-3.01-4.82-5.7-8.01-7.15-11.69c-2.54-6.45-6.07-5.69-11.01-2.94
		c-13.38,7.46-23.33,18.15-29.71,31.91c-17.25,37.17-34.32,74.43-51.24,111.76c-7.93,17.5,2.12,33.12,21.44,33.63
		c9.53,0.25,19.08-0.25,28.6,0.17c6.25,0.28,7.44-1.9,6.89-7.89c-3.4-37.26-6.54-74.54-9.43-111.84
		c-1.94-25.04,12.64-40.85,37.79-41.81C104.41,200.58,108.6,199.96,114.03,199.44z M152.59,145.15
		c-3.94,15.04,4.65,35.81,20.43,47.26c15.45,11.21,44.41,12.1,60.43,1.86c17.6-11.26,26.97-31.49,23.35-49.09
		c-10.88,0-21.57,0.24-32.24-0.08c-8.27-0.24-11.52-3.88-11.86-12.02c-0.11-2.77-0.27-5.54-0.4-8.12
		c-13.04-2.01-13.04-2.01-13.82,9.1c-0.49,6.98-4.03,10.78-11.51,11C175.63,145.4,164.28,145.15,152.59,145.15z M349.01,228.29
		c-1.21,16.41-2.29,32.28-3.58,48.13c-2.07,25.4-4.13,50.81-6.56,76.18c-0.66,6.86,1.86,8.79,8.3,8.5c8.8-0.4,17.64,0.01,26.45-0.14
		c19.48-0.32,28.82-14.82,20.89-32.71c-8.31-18.74-16.94-37.33-25.44-55.99C362.38,257.59,355.68,242.9,349.01,228.29z
		 M123.7,136.71c-14.3,11.45-16.98,30.26-7.24,46.78c10.24,17.36,28.73,22.96,49.28,14.61c-12.75-11.26-20.53-25.02-22.17-41.97
		c-0.09-0.94-1.21-2.5-1.94-2.56C131.26,152.79,126.45,145.84,123.7,136.71z M241.97,196.45c0.74,1,1.47,2.01,2.21,3.01
		c10.84,0,21.68,0.07,32.52-0.09c1.23-0.02,2.59-1.17,3.64-2.09c7.73-6.74,13.47-14.77,15.83-24.92
		c2.77-11.9-2.25-27.19-10.86-32.52c-2.39,6.77-5.72,12.99-13.53,14.19c-4.72,0.73-6.26,3.16-6.86,7.42
		c-1.74,12.24-7.55,22.51-16.11,31.22C247.05,194.45,244.27,195.22,241.97,196.45z M340.31,212.77
		c-7.01-12.53-15.63-23.44-28.8-29.67c-1.91-0.9-5.91-1.15-6.66-0.08c-3.48,4.9-6.16,10.37-9.76,16.75
		C312.07,199.39,328.26,199.04,340.31,212.77z M191.09,125.08c-12.33-2.66-16.09-0.13-19.14,12.86
		C192.65,140.94,193.76,138.74,191.09,125.08z M237.63,137.99c15.23,3.51,18.97,0.39,15.67-13.08
		C242.02,122.96,237.31,126.89,237.63,137.99z M265.54,135.35c0,0.94-0.22,1.95,0.04,2.82c0.78,2.61,1.76,5.16,2.65,7.74
		c2.63-1.98,5.79-3.55,7.7-6.07c1.4-1.84,2.38-5.71,1.37-7.29c-1.99-3.14-5.49-5.33-8.36-7.91c-1.13,2.39-2.41,4.73-3.34,7.2
		C265.22,132.86,265.55,134.17,265.54,135.35z M169.66,118.82c-0.39-0.5-0.79-1-1.18-1.5c-4.36,3.52-8.96,6.8-13.02,10.64
		c-3.86,3.65,1.02,6.4,1.68,9.62c2.61-0.62,6.1-0.41,7.64-2.04c2.43-2.57,3.55-6.37,5.38-9.95c-1.89-0.99-3.37-1.77-5.38-2.82
		C166.8,121.13,168.23,119.97,169.66,118.82z M236.36,124.18c-5.55,0-9.51-0.34-13.35,0.17c-1.48,0.2-3.91,2.39-3.84,3.55
		c0.22,3.51,1.01,7.19,2.62,10.25c0.38,0.72,5.87,0.2,7.22-1.33C231.84,133.62,233.48,129.37,236.36,124.18z M145.52,143.92
		c-1.98-6.29-3.49-11.56-5.38-16.68c-0.45-1.22-2.38-2.87-3.34-2.7c-1.63,0.3-3.62,1.54-4.43,2.97
		C128.55,134.29,134.72,143.71,145.52,143.92z M193.27,110.13c-6.48,1.8-12.96,3.61-19.44,5.41
		C181.75,118.89,185.43,117.79,193.27,110.13z M230.63,117.38c3.78,0,7.57,0,11.95,0C238.15,108.99,234.24,115.54,230.63,117.38z
		 M221.94,114.18c-0.36-0.86-0.72-1.71-1.08-2.57c-4.59,1.6-9.17,3.19-13.76,4.79c0.31,0.86,0.63,1.72,0.94,2.58
		C212.67,117.38,217.31,115.78,221.94,114.18z"/>
	<text transform="matrix(1 0 0 1 214.5193 369.9841)" fill="#DAE6F7" font-family="'HarlowSolid'" font-size="18.8801px">Design_Geek</text>
</g>
</svg>
