<?xml version="1.0" encoding="utf-8"?>
<!-- Generator: Adobe Illustrator 27.5.0, SVG Export Plug-In . SVG Version: 6.00 Build 0)  -->
<svg version="1.1" baseProfile="tiny" id="Layer_1" xmlns="http://www.w3.org/2000/svg" xmlns:xlink="http://www.w3.org/1999/xlink"
	 x="0px" y="0px" viewBox="0 0 1080 1080" overflow="visible" xml:space="preserve">
<g>
	<path fill="#F1F2F2" d="M778.38,783.69c-9.99,0-19.99,0.3-29.96-0.1c-7.48-0.3-9.97,2.83-10.71,10.11
		c-2.52,24.59-12.49,33.38-37.41,33.4c-126.92,0.07-253.84,0.07-380.76,0.01c-26.29-0.01-35.5-7.99-38.22-33.65
		c-0.79-7.48-3.75-9.99-10.99-9.87c-17.47,0.3-34.96,0.2-52.43,0.05c-51.55-0.46-78.57-42.45-57.46-89.11
		c27.44-60.65,54.24-121.6,82.45-181.89c16.86-36.03,39.63-67.45,78.12-84.04c3.38-1.46,6.41-7.04,7.04-11.1
		c10.81-70.38,27.45-138.77,68.47-198.61c18.46-26.93,41.62-48.94,73.48-59.33c49.55-16.15,98.83-0.22,135.08,42.95
		c34.03,40.52,52.24,88.55,65.15,138.91c6.69,26.08,11.91,52.53,18.18,78.73c0.62,2.61,3.44,5.69,5.98,6.71
		c36.05,14.44,60.57,41.39,76.74,75.17c31.62,66.04,62.1,132.65,91.66,199.63c16.16,36.62-8.33,76.58-48.26,81.18
		c-11.9,1.37-24.09,0.21-36.14,0.21C778.38,783.26,778.38,783.48,778.38,783.69z M508.74,806.58c64.06,0,128.12-0.12,192.18,0.12
		c10.43,0.04,16.21-2.79,17.15-14.37c6.34-78.34,13.35-156.63,19.62-234.98c2.97-37.06-14.32-55.13-51.52-55.16
		c-81.12-0.07-162.23-0.02-243.35-0.02c-37.02,0-74.04,0.03-111.06,0.01c-35.7-0.02-52.57,17.89-50.59,53.78
		c0.18,3.32,0.42,6.64,0.71,9.96c6.39,74.58,12.82,149.16,19.16,223.74c1.33,15.63,2.39,16.89,18.01,16.9
		C382.28,806.61,445.51,806.58,508.74,806.58z M360.05,345.94c97.62-60,192.95-62.83,289.98-4.3c-0.18-2.48,0.02-4.55-0.52-6.41
		c-13.28-45.49-31.39-88.42-62.48-125.2c-41.33-48.9-106.95-52.3-152.75-7.55c-29.05,28.39-46.5,63.54-60.46,100.8
		C368.77,316.75,364.94,330.68,360.05,345.94z M351.14,479.83c-5.25-8.4-9.94-13.96-12.47-20.38c-4.42-11.25-10.59-9.93-19.2-5.13
		c-23.34,13.01-40.68,31.66-51.82,55.65c-30.08,64.83-59.85,129.81-89.37,194.9c-13.84,30.52,3.71,57.76,37.39,58.65
		c16.62,0.44,33.28-0.44,49.87,0.3c10.89,0.49,12.97-3.31,12.02-13.76c-5.93-64.97-11.4-129.99-16.44-195.04
		c-3.39-43.68,22.04-71.25,65.91-72.92C334.36,481.82,341.65,480.75,351.14,479.83z M418.37,385.15
		c-6.87,26.24,8.11,62.45,35.63,82.42c26.94,19.55,77.45,21.11,105.39,3.24c30.7-19.63,47.04-54.92,40.72-85.61
		c-18.97,0-37.61,0.41-56.23-0.13c-14.42-0.42-20.1-6.77-20.68-20.96c-0.2-4.83-0.47-9.66-0.7-14.17
		c-22.74-3.51-22.74-3.51-24.11,15.87c-0.86,12.18-7.03,18.8-20.08,19.19C458.55,385.59,438.76,385.15,418.37,385.15z
		 M760.93,530.15c-2.12,28.61-3.99,56.29-6.25,83.94c-3.62,44.3-7.2,88.62-11.44,132.86c-1.15,11.97,3.24,15.34,14.47,14.82
		c15.35-0.7,30.76,0.01,46.14-0.24c33.97-0.55,50.26-25.84,36.43-57.04c-14.49-32.68-29.54-65.11-44.37-97.64
		C784.24,581.24,772.55,555.63,760.93,530.15z M367.99,370.43c-24.93,19.97-29.62,52.77-12.62,81.58
		c17.86,30.27,50.1,40.04,85.94,25.48c-22.24-19.64-35.8-43.63-38.66-73.2c-0.16-1.64-2.1-4.36-3.38-4.46
		C381.17,398.49,372.8,386.35,367.99,370.43z M574.25,474.63c1.28,1.75,2.57,3.5,3.85,5.25c18.91,0,37.81,0.12,56.71-0.17
		c2.15-0.03,4.52-2.04,6.35-3.64c13.47-11.75,23.48-25.76,27.61-43.46c4.83-20.75-3.93-47.42-18.95-56.71
		c-4.17,11.8-9.98,22.65-23.59,24.75c-8.23,1.27-10.91,5.52-11.97,12.94c-3.03,21.34-13.17,39.27-28.09,54.44
		C583.11,471.13,578.27,472.47,574.25,474.63z M745.76,503.08c-12.22-21.86-27.25-40.87-50.22-51.75c-3.33-1.58-10.3-2-11.62-0.14
		c-6.08,8.54-10.75,18.09-17.02,29.22C696.51,479.75,724.75,479.14,745.76,503.08z M485.52,350.16
		c-21.5-4.63-28.05-0.23-33.38,22.42C488.24,377.81,490.17,373.98,485.52,350.16z M566.68,372.67c26.56,6.12,33.08,0.69,27.32-22.81
		C574.34,346.46,566.13,353.31,566.68,372.67z M615.36,368.06c0,1.65-0.38,3.41,0.07,4.92c1.37,4.55,3.06,9.01,4.63,13.5
		c4.58-3.45,10.1-6.19,13.44-10.59c2.44-3.21,4.15-9.96,2.39-12.72c-3.48-5.48-9.57-9.29-14.58-13.79
		c-1.98,4.17-4.2,8.25-5.82,12.55C614.8,363.73,615.37,366,615.36,368.06z M448.15,339.23c-0.69-0.87-1.37-1.75-2.06-2.62
		c-7.61,6.14-15.62,11.86-22.71,18.55c-6.73,6.36,1.77,11.17,2.94,16.77c4.56-1.08,10.64-0.71,13.33-3.56
		c4.24-4.47,6.19-11.11,9.39-17.36c-3.3-1.73-5.88-3.08-9.39-4.92C443.16,343.26,445.65,341.24,448.15,339.23z M564.47,348.58
		c-9.67,0-16.58-0.59-23.29,0.3c-2.59,0.34-6.82,4.18-6.69,6.19c0.39,6.12,1.77,12.54,4.58,17.88c0.66,1.26,10.24,0.35,12.59-2.31
		C556.59,365.05,559.44,357.64,564.47,348.58z M406.06,383.01c-3.46-10.97-6.08-20.15-9.38-29.09c-0.79-2.12-4.15-5.01-5.82-4.71
		c-2.85,0.52-6.31,2.69-7.72,5.19C376.46,366.22,387.21,382.64,406.06,383.01z M489.32,324.07c-11.3,3.15-22.6,6.29-33.9,9.44
		C469.23,339.37,475.65,337.44,489.32,324.07z M554.48,336.73c6.6,0,13.2,0,20.84,0C567.6,322.09,560.77,333.51,554.48,336.73z
		 M539.32,331.14c-0.63-1.49-1.25-2.99-1.88-4.48c-8,2.78-16,5.57-24,8.35c0.55,1.5,1.09,3.01,1.64,4.51
		C523.16,336.72,531.24,333.93,539.32,331.14z"/>
	<g>
		<path fill="#F1F2F2" d="M544.03,759.15h-1.59h-0.43c-1.19,0-1.79-0.51-1.79-1.54c0-0.65,0.24-1.2,0.73-1.64
			c0.49-0.44,1.09-0.66,1.79-0.66h0.43h4.71c3.15,0,5.57,0.75,7.25,2.25c1.68,1.5,2.52,3.66,2.52,6.48c0,4.3-1.43,8.24-4.29,11.82
			c-1.62,2.01-3.45,3.48-5.49,4.4c-2.04,0.92-4.49,1.38-7.34,1.38h-1.12l-0.19,0.45c-0.75,1.67-1.34,2.85-1.77,3.52
			c-0.43,0.68-0.99,1.33-1.67,1.96c-1.79,1.64-3.84,2.46-6.16,2.46c-1.91,0-3.48-0.57-4.7-1.7c-1.23-1.13-1.84-2.57-1.84-4.32
			c0-1.07,0.26-2.08,0.79-3.01c0.53-0.94,1.24-1.67,2.14-2.19c1.17-0.68,2.75-1.01,4.74-1.01h5.71L544.03,759.15z M534.9,781.65
			h-4.26c-2.1,0-3.15,0.74-3.15,2.23c0,0.61,0.23,1.12,0.69,1.54c0.46,0.42,1.02,0.63,1.69,0.63c0.99,0,1.92-0.39,2.81-1.17
			C533.57,784.11,534.31,783.03,534.9,781.65z M540.98,777.8h0.64c3.32,0,6.1-1.47,8.34-4.42c1.08-1.42,1.94-2.95,2.56-4.6
			c0.63-1.65,0.94-3.18,0.94-4.58c0-1.56-0.44-2.8-1.32-3.7c-0.88-0.9-2.07-1.35-3.58-1.35L540.98,777.8z"/>
		<path fill="#F1F2F2" d="M561.83,772.55c0,0.8,0.6,1.21,1.82,1.21h4.77c1.35,0,2.03,0.48,2.03,1.43c0,0.65-0.24,1.16-0.72,1.53
			c-0.48,0.36-1.15,0.55-2,0.55h-4.55c-1.69,0-2.98-0.42-3.87-1.25c-0.89-0.84-1.33-2.06-1.33-3.67c0-2.07,0.7-3.85,2.1-5.35
			c1.4-1.5,3.06-2.25,4.99-2.25c1.4,0,2.53,0.37,3.38,1.1c0.85,0.73,1.28,1.7,1.28,2.9c0,1.45-0.59,2.52-1.77,3.22
			c-0.65,0.4-1.63,0.59-2.93,0.59H561.83z M562.6,769.62h1.77c1.15,0,1.71-0.25,1.67-0.76c-0.03-0.57-0.4-0.85-1.11-0.85
			C563.95,768.01,563.17,768.55,562.6,769.62z"/>
		<path fill="#F1F2F2" d="M576.41,769.35l-0.31,0.74c-0.47,1.06-1.14,1.59-2.01,1.59c-0.44,0-0.83-0.15-1.18-0.46
			c-0.35-0.3-0.52-0.66-0.52-1.05c0-0.38,0.16-0.87,0.47-1.5l2.14-4.34c0.52-1.04,1.18-1.56,1.96-1.56c0.42,0,0.78,0.14,1.08,0.41
			c0.3,0.27,0.45,0.6,0.45,0.97c0,0.1-0.03,0.3-0.1,0.63c-0.04,0.24-0.07,0.45-0.07,0.63c0,0.67,0.25,1.37,0.76,2.07l0.92,1.27
			c0.93,1.3,1.4,2.55,1.4,3.76c0,1.35-0.5,2.48-1.51,3.38c-1.01,0.91-2.26,1.36-3.76,1.36h-3.36c-1.36,0-2.04-0.47-2.04-1.41
			c0-0.65,0.24-1.17,0.72-1.54c0.48-0.37,1.15-0.55,1.99-0.55h1.86c1.49,0,2.23-0.54,2.23-1.62c0-0.4-0.14-0.86-0.42-1.4
			L576.41,769.35z"/>
		<path fill="#F1F2F2" d="M587.03,773.75h1.82c1.35,0,2.03,0.48,2.03,1.43c0,0.65-0.24,1.16-0.72,1.53c-0.48,0.36-1.15,0.55-2,0.55
			h-2.56c-0.94,0-1.69-0.19-2.23-0.58c-0.54-0.39-0.81-0.91-0.81-1.58c0-0.35,0.11-0.8,0.34-1.35l2.65-6.53l0.18-0.45
			c0.49-1.21,1.29-1.82,2.38-1.82c0.45,0,0.84,0.15,1.17,0.45c0.33,0.3,0.49,0.66,0.49,1.08c0,0.34-0.15,0.87-0.43,1.58
			L587.03,773.75z M589.15,759.83c0.62,0,1.15,0.22,1.58,0.65c0.43,0.43,0.65,0.96,0.65,1.58c0,0.62-0.22,1.15-0.65,1.58
			c-0.43,0.43-0.96,0.65-1.58,0.65c-0.62,0-1.15-0.22-1.58-0.65c-0.43-0.43-0.65-0.96-0.65-1.58c0-0.62,0.22-1.15,0.65-1.58
			S588.53,759.83,589.15,759.83z"/>
		<path fill="#F1F2F2" d="M600.95,777.71h1.93c1.36,0,2.04,0.47,2.04,1.41c0,0.65-0.24,1.17-0.72,1.54
			c-0.48,0.37-1.15,0.55-1.99,0.55h-2.67l-0.68,1.66c-1.64,4.02-4.04,6.03-7.19,6.03c-1.65,0-3.03-0.51-4.12-1.53
			c-1.1-1.02-1.65-2.29-1.65-3.83c0-1,0.27-1.93,0.8-2.81c0.53-0.87,1.26-1.57,2.18-2.08c1.14-0.63,2.66-0.95,4.58-0.95h3.46
			l0.5-1.25c-0.68,0.41-1.31,0.61-1.91,0.61c-1.15,0-2.08-0.4-2.79-1.19c-0.71-0.79-1.07-1.83-1.07-3.1c0-2.06,0.72-3.91,2.17-5.56
			c1.45-1.65,3.07-2.48,4.87-2.48c1.32,0,2.3,0.43,2.96,1.29c0.5-0.86,1.22-1.29,2.14-1.29c0.45,0,0.83,0.15,1.15,0.44
			c0.32,0.29,0.47,0.65,0.47,1.07c0,0.33-0.14,0.84-0.42,1.53L600.95,777.71z M595.48,781.21h-2.78c-0.96,0-1.71,0.2-2.24,0.61
			c-0.53,0.41-0.8,0.98-0.8,1.72c0,0.5,0.18,0.93,0.55,1.29c0.36,0.35,0.81,0.53,1.35,0.53c0.77,0,1.45-0.31,2.03-0.92
			C594.16,783.83,594.8,782.75,595.48,781.21z M598.86,772.88l1.3-3.18c0.11-0.27,0.16-0.49,0.16-0.66c0-0.32-0.14-0.59-0.43-0.8
			c-0.28-0.21-0.64-0.32-1.07-0.32c-0.77,0-1.51,0.44-2.21,1.33c-0.7,0.88-1.05,1.82-1.05,2.8c0,1.13,0.53,1.69,1.58,1.69
			C598.05,773.74,598.62,773.45,598.86,772.88z"/>
		<path fill="#F1F2F2" d="M617.73,773.75h1.93c1.36,0,2.04,0.48,2.04,1.43c0,0.65-0.24,1.16-0.72,1.53
			c-0.48,0.36-1.15,0.55-1.99,0.55h-3.36c-0.65,0-1.2-0.2-1.65-0.59c-0.45-0.4-0.67-0.9-0.67-1.5c0-0.36,0.15-0.91,0.45-1.64
			l1.41-3.5c0.15-0.36,0.23-0.66,0.24-0.88c0.01-0.26-0.09-0.48-0.31-0.66s-0.5-0.27-0.84-0.27c-1.1,0-1.99,0.83-2.67,2.49
			l-1.9,4.66c-0.57,1.42-1.41,2.12-2.54,2.12c-0.46,0-0.85-0.14-1.17-0.42c-0.32-0.28-0.48-0.62-0.48-1.03
			c0-0.3,0.09-0.66,0.26-1.08l0.18-0.43l3.25-8.01c0.42-1.04,1.13-1.56,2.14-1.56c0.83,0,1.42,0.36,1.77,1.09
			c1.15-0.88,2.24-1.32,3.28-1.32c1.01,0,1.84,0.29,2.49,0.87c0.65,0.58,0.98,1.31,0.98,2.2c0,0.49-0.12,1.04-0.35,1.62
			L617.73,773.75z"/>
		<path fill="#F1F2F2" d="M620.79,778.85h16.46v3.65h-16.46V778.85z"/>
		<path fill="#F1F2F2" d="M657.69,773.41h2.38c1.49,0,2.23,0.53,2.23,1.58c0,0.71-0.26,1.26-0.79,1.66s-1.25,0.6-2.19,0.6h-3.22
			l-1.19,2.96c-1.3,3.27-2.65,5.58-4.07,6.92c-1.41,1.34-3.18,2.02-5.29,2.02c-1.99,0-3.66-0.66-4.99-1.99c-1.33-1.32-2-2.98-2-4.96
			c0-3.13,1.5-5.54,4.5-7.23c1.83-1.02,4.35-1.53,7.56-1.53l2.56-0.03l0.55-1.37c-0.81,0.3-1.65,0.45-2.49,0.45
			c-1.64,0-2.96-0.57-3.97-1.71c-1.01-1.14-1.51-2.64-1.51-4.51h-2.22h-0.42c-1.2,0-1.8-0.51-1.8-1.53c0-0.65,0.24-1.2,0.73-1.65
			s1.09-0.67,1.81-0.67h0.42h2.33c1.17-2.33,2.64-4.15,4.43-5.47c1.78-1.32,3.67-1.98,5.65-1.98c1.64,0,2.98,0.48,4.01,1.45
			c1.03,0.96,1.55,2.21,1.55,3.73c0,2.14-0.96,3.79-2.88,4.95c-1.28,0.77-3.19,1.16-5.76,1.16h-3.67v0.32c0,1.37,0.8,2.06,2.41,2.06
			c0.72,0,1.45-0.22,2.2-0.64l0.85-0.5c0.74-0.43,1.37-0.64,1.9-0.64c0.59,0,1.08,0.18,1.46,0.53c0.39,0.35,0.58,0.81,0.58,1.37
			c0,0.34-0.15,0.88-0.45,1.62L657.69,773.41z M651.62,777.26c-2.26,0-3.99,0.21-5.19,0.64c-1.11,0.4-1.99,0.97-2.64,1.71
			c-0.64,0.74-0.97,1.57-0.97,2.47c0,0.84,0.28,1.54,0.83,2.12c0.55,0.58,1.23,0.87,2.03,0.87c0.98,0,1.86-0.43,2.65-1.3
			c0.79-0.87,1.57-2.27,2.36-4.21L651.62,777.26z M651.13,762.43h3.12c2.66,0,3.99-0.72,3.99-2.17c0-0.43-0.17-0.79-0.52-1.07
			c-0.35-0.28-0.79-0.43-1.33-0.43c-0.83,0-1.71,0.33-2.64,0.98C652.8,760.4,651.93,761.3,651.13,762.43z"/>
		<path fill="#F1F2F2" d="M667.41,772.55c0,0.8,0.6,1.21,1.82,1.21H674c1.35,0,2.03,0.48,2.03,1.43c0,0.65-0.24,1.16-0.72,1.53
			c-0.48,0.36-1.15,0.55-2,0.55h-4.55c-1.69,0-2.98-0.42-3.87-1.25c-0.89-0.84-1.33-2.06-1.33-3.67c0-2.07,0.7-3.85,2.1-5.35
			c1.4-1.5,3.06-2.25,4.99-2.25c1.4,0,2.53,0.37,3.38,1.1c0.85,0.73,1.28,1.7,1.28,2.9c0,1.45-0.59,2.52-1.77,3.22
			c-0.65,0.4-1.63,0.59-2.93,0.59H667.41z M668.18,769.62h1.77c1.15,0,1.71-0.25,1.67-0.76c-0.03-0.57-0.4-0.85-1.11-0.85
			C669.53,768.01,668.75,768.55,668.18,769.62z"/>
		<path fill="#F1F2F2" d="M680.5,772.55c0,0.8,0.6,1.21,1.82,1.21h4.77c1.35,0,2.03,0.48,2.03,1.43c0,0.65-0.24,1.16-0.72,1.53
			c-0.48,0.36-1.15,0.55-2,0.55h-4.55c-1.69,0-2.98-0.42-3.87-1.25c-0.89-0.84-1.33-2.06-1.33-3.67c0-2.07,0.7-3.85,2.1-5.35
			c1.4-1.5,3.06-2.25,4.99-2.25c1.4,0,2.53,0.37,3.38,1.1c0.85,0.73,1.28,1.7,1.28,2.9c0,1.45-0.59,2.52-1.77,3.22
			c-0.65,0.4-1.63,0.59-2.93,0.59H680.5z M681.27,769.62h1.77c1.15,0,1.71-0.25,1.67-0.76c-0.03-0.57-0.4-0.85-1.11-0.85
			C682.62,768.01,681.84,768.55,681.27,769.62z"/>
		<path fill="#F1F2F2" d="M699.53,770.46l2.49,3.91c0.31,0.48,0.47,0.88,0.47,1.19c0,0.49-0.21,0.94-0.62,1.33
			c-0.41,0.4-0.88,0.59-1.39,0.59c-0.45,0-0.84-0.24-1.17-0.72l-0.19-0.29l-3.73-5.58l-1.8,4.45c-0.58,1.43-1.43,2.14-2.54,2.14
			c-0.46,0-0.85-0.14-1.17-0.43c-0.32-0.28-0.47-0.63-0.47-1.04c0-0.31,0.09-0.67,0.26-1.08l0.18-0.43l6.88-16.96l0.18-0.43
			c0.49-1.2,1.28-1.8,2.36-1.8c0.45,0,0.84,0.15,1.16,0.45c0.32,0.3,0.48,0.66,0.48,1.08c0,0.32-0.09,0.69-0.26,1.11l-0.18,0.43
			l-4.1,10.1l3.62-2.68c0.75-0.56,1.39-0.84,1.93-0.84c0.45,0,0.83,0.14,1.12,0.43s0.45,0.65,0.45,1.08c0,0.72-0.4,1.37-1.19,1.96
			l-0.37,0.27L699.53,770.46z"/>
	</g>
</g>
</svg>
